%TF.GenerationSoftware,KiCad,Pcbnew,7.0.8*%
%TF.CreationDate,2024-02-13T15:10:35+09:00*%
%TF.ProjectId,446_CAN_Robomaster_newpanelize,3434365f-4341-44e5-9f52-6f626f6d6173,rev?*%
%TF.SameCoordinates,Original*%
%TF.FileFunction,Profile,NP*%
%FSLAX46Y46*%
G04 Gerber Fmt 4.6, Leading zero omitted, Abs format (unit mm)*
G04 Created by KiCad (PCBNEW 7.0.8) date 2024-02-13 15:10:35*
%MOMM*%
%LPD*%
G01*
G04 APERTURE LIST*
%TA.AperFunction,Profile*%
%ADD10C,0.100000*%
%TD*%
G04 APERTURE END LIST*
D10*
X70317694Y-51047636D02*
X70165477Y-50995607D01*
X1634166Y-46951050D02*
X1776748Y-47025529D01*
X70755833Y-398949D02*
X70613251Y-324470D01*
X72065529Y-52626748D02*
X71991050Y-52484166D01*
X71118436Y-46685712D02*
X71243107Y-46584057D01*
X257308Y-1922920D02*
X197636Y-2072305D01*
X72345924Y-44335811D02*
X72350000Y-44175000D01*
X1634166Y-398949D02*
X1495539Y-480554D01*
X71624057Y-51956892D02*
X71516217Y-51837530D01*
X3175000Y-98200000D02*
X69175000Y-98200000D01*
X69814122Y-98135007D02*
X69970821Y-98098644D01*
X70467079Y-257308D02*
X70317694Y-197636D01*
X71402469Y-51723782D02*
X71283107Y-51615942D01*
X71909445Y-52345539D02*
X71820923Y-52211223D01*
X69655783Y-47313386D02*
X69655783Y-47313386D01*
X70010821Y-50951355D02*
X69854122Y-50914992D01*
X1231563Y-46685712D02*
X1361223Y-46780923D01*
X72248644Y-95820821D02*
X72285007Y-95664122D01*
X257308Y-96277079D02*
X324470Y-96423251D01*
X72325007Y-2535877D02*
X72288644Y-2379178D01*
X569076Y-52211223D02*
X480554Y-52345539D01*
X398949Y-52484166D02*
X324470Y-52626748D01*
X71243107Y-97434057D02*
X71362469Y-97326217D01*
X101355Y-44970821D02*
X145607Y-45125477D01*
X1361223Y-569076D02*
X1231563Y-664287D01*
X2072305Y-47152363D02*
X2224522Y-47204392D01*
X69496209Y-98183710D02*
X69655783Y-98163386D01*
X145607Y-95975477D02*
X197636Y-96127694D01*
X69536209Y-16289D02*
X69375811Y-4075D01*
X4075Y-95185811D02*
X16289Y-95346209D01*
X664287Y-1231563D02*
X569076Y-1361223D01*
X70573251Y-97875529D02*
X70715833Y-97801050D01*
X71402469Y-873782D02*
X71283107Y-765942D01*
X1776748Y-51174470D02*
X1634166Y-51248949D01*
X1231563Y-51514287D02*
X1106892Y-51615942D01*
X72350000Y-44175000D02*
X72390000Y-3175000D01*
X71869445Y-45854460D02*
X71951050Y-45715833D01*
X36613Y-53544216D02*
X16289Y-53703790D01*
X873782Y-987530D02*
X765942Y-1106892D01*
X70755833Y-51248949D02*
X70613251Y-51174470D01*
X70427079Y-47092691D02*
X70573251Y-47025529D01*
X72373710Y-2853790D02*
X72353386Y-2694216D01*
X2379178Y-50951355D02*
X2224522Y-50995607D01*
X197636Y-45277694D02*
X257308Y-45427079D01*
X72248644Y-44970821D02*
X72285007Y-44814122D01*
X1106892Y-97434057D02*
X1231563Y-97535712D01*
X70988776Y-97630923D02*
X71118436Y-97535712D01*
X70854460Y-46869445D02*
X70988776Y-46780923D01*
X2694216Y-98163386D02*
X2853790Y-98183710D01*
X2535877Y-64992D02*
X2379178Y-101355D01*
X71362469Y-97326217D02*
X71476217Y-97212469D01*
X27130000Y-49100000D02*
X27130000Y-47350000D01*
X873782Y-51837530D02*
X765942Y-51956892D01*
X1922920Y-51107308D02*
X1776748Y-51174470D01*
X72350000Y-95025000D02*
X72390000Y-54025000D01*
X398949Y-96565833D02*
X480554Y-96704460D01*
X664287Y-52081563D02*
X569076Y-52211223D01*
X1634166Y-97801050D02*
X1776748Y-97875529D01*
X71516217Y-987530D02*
X71402469Y-873782D01*
X69854122Y-50914992D02*
X69695783Y-50886613D01*
X70613251Y-324470D02*
X70467079Y-257308D01*
X69215000Y-50850000D02*
X51260000Y-50850000D01*
X72288644Y-53229178D02*
X72244392Y-53074522D01*
X72092691Y-96277079D02*
X72152363Y-96127694D01*
X45260000Y-47350000D02*
X45260000Y-49100000D01*
X72092691Y-45427079D02*
X72152363Y-45277694D01*
X69655783Y-98163386D02*
X69814122Y-98135007D01*
X72288644Y-2379178D02*
X72244392Y-2224522D01*
X987530Y-873782D02*
X873782Y-987530D01*
X71028776Y-51419076D02*
X70894460Y-51330554D01*
X0Y-95025000D02*
X4075Y-95185811D01*
X69655783Y-47313386D02*
X69814122Y-47285007D01*
X3014188Y-47345924D02*
X3175000Y-47350000D01*
X2853790Y-16289D02*
X2694216Y-36613D01*
X71869445Y-96704460D02*
X71951050Y-96565833D01*
X2072305Y-98002363D02*
X2224522Y-98054392D01*
X71158436Y-51514287D02*
X71028776Y-51419076D01*
X70165477Y-145607D02*
X70010821Y-101355D01*
X1495539Y-46869445D02*
X1634166Y-46951050D01*
X71780923Y-45988776D02*
X71869445Y-45854460D01*
X398949Y-1634166D02*
X324470Y-1776748D01*
X71476217Y-46362469D02*
X71584057Y-46243107D01*
X69375811Y-4075D02*
X69215000Y0D01*
X69814122Y-47285007D02*
X69970821Y-47248644D01*
X69695783Y-36613D02*
X69536209Y-16289D01*
X71909445Y-1495539D02*
X71820923Y-1361223D01*
X70854460Y-97719445D02*
X70988776Y-97630923D01*
X72285007Y-44814122D02*
X72313386Y-44655783D01*
X1495539Y-480554D02*
X1361223Y-569076D01*
X71028776Y-569076D02*
X70894460Y-480554D01*
X71991050Y-1634166D02*
X71909445Y-1495539D01*
X2853790Y-50866289D02*
X2694216Y-50886613D01*
X1231563Y-664287D02*
X1106892Y-765942D01*
X69970821Y-47248644D02*
X70125477Y-47204392D01*
X21130000Y-47350000D02*
X21130000Y-49100000D01*
X21130000Y-50850000D02*
X3175000Y-50850000D01*
X72345924Y-95185811D02*
X72350000Y-95025000D01*
X1922920Y-47092691D02*
X2072305Y-47152363D01*
X569076Y-1361223D02*
X480554Y-1495539D01*
X71951050Y-96565833D02*
X72025529Y-96423251D01*
X70427079Y-97942691D02*
X70573251Y-97875529D01*
X36613Y-44655783D02*
X64992Y-44814122D01*
X64992Y-44814122D02*
X101355Y-44970821D01*
X71362469Y-46476217D02*
X71476217Y-46362469D01*
X72285007Y-95664122D02*
X72313386Y-95505783D01*
X69536209Y-50866289D02*
X69375811Y-50854075D01*
X70715833Y-46951050D02*
X70854460Y-46869445D01*
X71476217Y-97212469D02*
X71584057Y-97093107D01*
X71820923Y-1361223D02*
X71725712Y-1231563D01*
X72385924Y-53864188D02*
X72373710Y-53703790D01*
X145607Y-2224522D02*
X101355Y-2379178D01*
X145607Y-53074522D02*
X101355Y-53229178D01*
X69854122Y-64992D02*
X69695783Y-36613D01*
X569076Y-45988776D02*
X664287Y-46118436D01*
X987530Y-97326217D02*
X1106892Y-97434057D01*
X71685712Y-96968436D02*
X71780923Y-96838776D01*
X71780923Y-96838776D02*
X71869445Y-96704460D01*
X1922920Y-257308D02*
X1776748Y-324470D01*
X987530Y-46476217D02*
X1106892Y-46584057D01*
X480554Y-52345539D02*
X398949Y-52484166D01*
X0Y-3175000D02*
X0Y-44175000D01*
X2694216Y-36613D02*
X2535877Y-64992D01*
X72025529Y-96423251D02*
X72092691Y-96277079D01*
X480554Y-96704460D02*
X569076Y-96838776D01*
X0Y-54025000D02*
X0Y-95025000D01*
X71243107Y-46584057D02*
X71362469Y-46476217D01*
X71516217Y-51837530D02*
X71402469Y-51723782D01*
X2853790Y-98183710D02*
X3014188Y-98195924D01*
X2694216Y-50886613D02*
X2535877Y-50914992D01*
X16289Y-2853790D02*
X4075Y-3014188D01*
X69375811Y-50854075D02*
X69215000Y-50850000D01*
X2224522Y-47204392D02*
X2379178Y-47248644D01*
X2535877Y-47285007D02*
X2694216Y-47313386D01*
X70894460Y-480554D02*
X70755833Y-398949D01*
X2694216Y-47313386D02*
X2853790Y-47333710D01*
X1776748Y-324470D02*
X1634166Y-398949D01*
X69215000Y0D02*
X3175000Y0D01*
X1361223Y-46780923D02*
X1495539Y-46869445D01*
X69175000Y-98200000D02*
X69335811Y-98195924D01*
X71951050Y-45715833D02*
X72025529Y-45573251D01*
X72192363Y-52922305D02*
X72132691Y-52772920D01*
X101355Y-2379178D02*
X64992Y-2535877D01*
X569076Y-96838776D02*
X664287Y-96968436D01*
X664287Y-96968436D02*
X765942Y-97093107D01*
X72385924Y-3014188D02*
X72373710Y-2853790D01*
X987530Y-51723782D02*
X873782Y-51837530D01*
X2379178Y-98098644D02*
X2535877Y-98135007D01*
X27130000Y-47350000D02*
X45260000Y-47350000D01*
X1106892Y-46584057D02*
X1231563Y-46685712D01*
X4075Y-3014188D02*
X0Y-3175000D01*
X197636Y-96127694D02*
X257308Y-96277079D01*
X2379178Y-47248644D02*
X2535877Y-47285007D01*
X27130000Y-47350000D02*
X27130000Y-47350000D01*
X70125477Y-47204392D02*
X70277694Y-47152363D01*
X70165477Y-50995607D02*
X70010821Y-50951355D01*
X16289Y-53703790D02*
X4075Y-53864188D01*
X765942Y-1106892D02*
X664287Y-1231563D01*
X480554Y-45854460D02*
X569076Y-45988776D01*
X72390000Y-54025000D02*
X72385924Y-53864188D01*
X70277694Y-98002363D02*
X70427079Y-97942691D01*
X70715833Y-97801050D02*
X70854460Y-97719445D01*
X70010821Y-101355D02*
X69854122Y-64992D01*
X71991050Y-52484166D02*
X71909445Y-52345539D01*
X27130000Y-50850000D02*
X27130000Y-49100000D01*
X72390000Y-3175000D02*
X72385924Y-3014188D01*
X71283107Y-765942D02*
X71158436Y-664287D01*
X2072305Y-197636D02*
X1922920Y-257308D01*
X71118436Y-97535712D02*
X71243107Y-97434057D01*
X70467079Y-51107308D02*
X70317694Y-51047636D01*
X64992Y-2535877D02*
X36613Y-2694216D01*
X21130000Y-49100000D02*
X21130000Y-50850000D01*
X1776748Y-97875529D02*
X1922920Y-97942691D01*
X72132691Y-1922920D02*
X72065529Y-1776748D01*
X70613251Y-51174470D02*
X70467079Y-51107308D01*
X2535877Y-98135007D02*
X2694216Y-98163386D01*
X765942Y-97093107D02*
X873782Y-97212469D01*
X398949Y-45715833D02*
X480554Y-45854460D01*
X257308Y-52772920D02*
X197636Y-52922305D01*
X765942Y-46243107D02*
X873782Y-46362469D01*
X1495539Y-97719445D02*
X1634166Y-97801050D01*
X64992Y-95664122D02*
X101355Y-95820821D01*
X69335811Y-47345924D02*
X69496209Y-47333710D01*
X45260000Y-49100000D02*
X45260000Y-50850000D01*
X69335811Y-98195924D02*
X69496209Y-98183710D01*
X71158436Y-664287D02*
X71028776Y-569076D01*
X2072305Y-51047636D02*
X1922920Y-51107308D01*
X72353386Y-2694216D02*
X72325007Y-2535877D01*
X4075Y-53864188D02*
X0Y-54025000D01*
X71584057Y-46243107D02*
X71685712Y-46118436D01*
X45260000Y-50850000D02*
X27130000Y-50850000D01*
X72373710Y-53703790D02*
X72353386Y-53544216D01*
X3014188Y-50854075D02*
X2853790Y-50866289D01*
X36613Y-2694216D02*
X16289Y-2853790D01*
X72065529Y-1776748D02*
X71991050Y-1634166D01*
X36613Y-95505783D02*
X64992Y-95664122D01*
X3175000Y-50850000D02*
X3014188Y-50854075D01*
X101355Y-95820821D02*
X145607Y-95975477D01*
X71820923Y-52211223D02*
X71725712Y-52081563D01*
X16289Y-95346209D02*
X36613Y-95505783D01*
X1361223Y-51419076D02*
X1231563Y-51514287D01*
X1634166Y-51248949D02*
X1495539Y-51330554D01*
X873782Y-46362469D02*
X987530Y-46476217D01*
X72132691Y-52772920D02*
X72065529Y-52626748D01*
X1231563Y-97535712D02*
X1361223Y-97630923D01*
X2224522Y-145607D02*
X2072305Y-197636D01*
X51260000Y-50850000D02*
X51260000Y-49100000D01*
X70894460Y-51330554D02*
X70755833Y-51248949D01*
X3175000Y-47350000D02*
X21130000Y-47350000D01*
X1922920Y-97942691D02*
X2072305Y-98002363D01*
X2379178Y-101355D02*
X2224522Y-145607D01*
X72353386Y-53544216D02*
X72325007Y-53385877D01*
X324470Y-1776748D02*
X257308Y-1922920D01*
X1361223Y-97630923D02*
X1495539Y-97719445D01*
X72204392Y-45125477D02*
X72248644Y-44970821D01*
X1776748Y-47025529D02*
X1922920Y-47092691D01*
X2224522Y-50995607D02*
X2072305Y-51047636D01*
X0Y-44175000D02*
X4075Y-44335811D01*
X70988776Y-46780923D02*
X71118436Y-46685712D01*
X72333710Y-95346209D02*
X72345924Y-95185811D01*
X71283107Y-51615942D02*
X71158436Y-51514287D01*
X72325007Y-53385877D02*
X72288644Y-53229178D01*
X72025529Y-45573251D02*
X72092691Y-45427079D01*
X1106892Y-765942D02*
X987530Y-873782D01*
X72152363Y-45277694D02*
X72204392Y-45125477D01*
X101355Y-53229178D02*
X64992Y-53385877D01*
X69175000Y-47350000D02*
X69335811Y-47345924D01*
X71584057Y-97093107D02*
X71685712Y-96968436D01*
X72152363Y-96127694D02*
X72204392Y-95975477D01*
X324470Y-52626748D02*
X257308Y-52772920D01*
X197636Y-2072305D02*
X145607Y-2224522D01*
X72244392Y-2224522D02*
X72192363Y-2072305D01*
X664287Y-46118436D02*
X765942Y-46243107D01*
X70317694Y-197636D02*
X70165477Y-145607D01*
X4075Y-44335811D02*
X16289Y-44496209D01*
X2535877Y-50914992D02*
X2379178Y-50951355D01*
X69695783Y-50886613D02*
X69536209Y-50866289D01*
X16289Y-44496209D02*
X36613Y-44655783D01*
X51260000Y-49100000D02*
X51260000Y-47350000D01*
X71685712Y-46118436D02*
X71780923Y-45988776D01*
X257308Y-45427079D02*
X324470Y-45573251D01*
X72204392Y-95975477D02*
X72248644Y-95820821D01*
X197636Y-52922305D02*
X145607Y-53074522D01*
X480554Y-1495539D02*
X398949Y-1634166D01*
X69970821Y-98098644D02*
X70125477Y-98054392D01*
X2224522Y-98054392D02*
X2379178Y-98098644D01*
X71725712Y-52081563D02*
X71624057Y-51956892D01*
X71725712Y-1231563D02*
X71624057Y-1106892D01*
X873782Y-97212469D02*
X987530Y-97326217D01*
X51260000Y-47350000D02*
X69175000Y-47350000D01*
X70125477Y-98054392D02*
X70277694Y-98002363D01*
X145607Y-45125477D02*
X197636Y-45277694D01*
X69496209Y-47333710D02*
X69655783Y-47313386D01*
X71624057Y-1106892D02*
X71516217Y-987530D01*
X1495539Y-51330554D02*
X1361223Y-51419076D01*
X1106892Y-51615942D02*
X987530Y-51723782D01*
X70573251Y-47025529D02*
X70715833Y-46951050D01*
X765942Y-51956892D02*
X664287Y-52081563D01*
X70277694Y-47152363D02*
X70427079Y-47092691D01*
X72244392Y-53074522D02*
X72192363Y-52922305D01*
X3175000Y0D02*
X3014188Y-4075D01*
X72333710Y-44496209D02*
X72345924Y-44335811D01*
X3014188Y-4075D02*
X2853790Y-16289D01*
X72313386Y-44655783D02*
X72333710Y-44496209D01*
X72192363Y-2072305D02*
X72132691Y-1922920D01*
X324470Y-96423251D02*
X398949Y-96565833D01*
X64992Y-53385877D02*
X36613Y-53544216D01*
X324470Y-45573251D02*
X398949Y-45715833D01*
X3014188Y-98195924D02*
X3175000Y-98200000D01*
X2853790Y-47333710D02*
X3014188Y-47345924D01*
X72313386Y-95505783D02*
X72333710Y-95346209D01*
M02*
