M48
; DRILL file {KiCad 7.0.8} date Tue Feb 13 15:10:35 2024
; FORMAT={-:-/ absolute / inch / decimal}
; #@! TF.CreationDate,2024-02-13T15:10:35+09:00
; #@! TF.GenerationSoftware,Kicad,Pcbnew,7.0.8
; #@! TF.FileFunction,Plated,1,2,PTH
FMAT,2
INCH
; #@! TA.AperFunction,Plated,PTH,ViaDrill
T1C0.0118
; #@! TA.AperFunction,Plated,PTH,ViaDrill
T2C0.0157
; #@! TA.AperFunction,Plated,PTH,ComponentDrill
T3C0.0236
; #@! TA.AperFunction,Plated,PTH,ComponentDrill
T4C0.0350
; #@! TA.AperFunction,Plated,PTH,ComponentDrill
T5C0.0354
; #@! TA.AperFunction,Plated,PTH,ComponentDrill
T6C0.0374
; #@! TA.AperFunction,Plated,PTH,ComponentDrill
T7C0.0394
; #@! TA.AperFunction,Plated,PTH,ComponentDrill
T8C0.0472
; #@! TA.AperFunction,Plated,PTH,ComponentDrill
T9C0.1260
%
G90
G05
T1
X0.03Y-0.305
X0.03Y-0.49
X0.03Y-2.307
X0.03Y-2.492
X0.045Y-0.955
X0.045Y-2.957
X0.115Y-0.845
X0.115Y-2.847
X0.38Y-1.325
X0.38Y-3.327
X0.405Y-1.81
X0.405Y-3.812
X0.41Y-1.65
X0.41Y-3.652
X0.435Y-0.41
X0.435Y-2.412
X0.45Y-0.28
X0.45Y-2.282
X0.49Y-0.15
X0.49Y-2.152
X0.515Y-1.595
X0.515Y-3.597
X0.53Y-0.025
X0.53Y-2.027
X0.585Y-0.5
X0.585Y-2.502
X0.605Y-1.81
X0.605Y-3.812
X0.61Y-1.65
X0.61Y-3.652
X0.63Y-0.15
X0.63Y-2.152
X0.715Y-1.625
X0.715Y-3.627
X0.74Y-0.025
X0.74Y-2.027
X0.745Y-0.5
X0.745Y-2.502
X0.775Y-0.145
X0.775Y-2.147
X0.805Y-1.81
X0.805Y-3.812
X0.81Y-1.65
X0.81Y-3.652
X0.875Y-0.755
X0.875Y-2.757
X0.905Y-0.5
X0.905Y-2.502
X0.91Y-1.64
X0.91Y-3.642
X0.915Y-1.0622
X0.915Y-3.0641
X0.925Y-0.615
X0.925Y-2.617
X0.94Y-0.025
X0.94Y-2.027
X0.945Y-0.755
X0.945Y-2.757
X0.99Y-1.6975
X0.99Y-3.6995
X1.025Y-0.915
X1.025Y-1.175
X1.025Y-2.917
X1.025Y-3.177
X1.075Y-0.5
X1.075Y-2.502
X1.095Y-1.6975
X1.095Y-3.6995
X1.14Y-0.025
X1.14Y-2.027
X1.145Y-0.625
X1.145Y-2.627
X1.19Y-1.695
X1.19Y-3.697
X1.275Y-0.135
X1.275Y-0.21
X1.275Y-2.137
X1.275Y-2.212
X1.285Y-1.395
X1.285Y-1.7
X1.285Y-3.397
X1.285Y-3.702
X1.295Y-0.5
X1.295Y-0.915
X1.295Y-1.175
X1.295Y-2.502
X1.295Y-2.917
X1.295Y-3.177
X1.32Y-1.775
X1.32Y-3.777
X1.335Y-0.025
X1.335Y-2.027
X1.375Y-0.13
X1.375Y-2.132
X1.385Y-1.135
X1.385Y-3.137
X1.3854Y-1.7001
X1.3854Y-3.7021
X1.42Y-1.775
X1.42Y-3.777
X1.465Y-0.625
X1.465Y-2.627
X1.485Y-1.7
X1.485Y-3.702
X1.49Y-0.5
X1.49Y-2.502
X1.51Y-0.125
X1.51Y-2.127
X1.52Y-1.775
X1.52Y-3.777
X1.525Y-0.025
X1.525Y-0.965
X1.525Y-1.16
X1.525Y-2.027
X1.525Y-2.967
X1.525Y-3.162
X1.5561Y-0.3261
X1.5561Y-2.3281
X1.56Y-0.385
X1.56Y-0.5
X1.56Y-2.387
X1.56Y-2.502
X1.585Y-1.7
X1.585Y-3.702
X1.625Y-1.775
X1.625Y-3.777
X1.635Y-0.33
X1.635Y-2.332
X1.68Y-0.5
X1.68Y-2.502
X1.685Y-1.4
X1.685Y-3.402
X1.72Y-0.025
X1.72Y-2.027
X1.7217Y-0.9681
X1.7217Y-2.9701
X1.7267Y-1.1631
X1.7267Y-3.1651
X1.745Y-1.315
X1.745Y-3.317
X1.755Y-0.8744
X1.755Y-2.8763
X1.76Y-0.22
X1.76Y-1.825
X1.76Y-2.222
X1.76Y-3.827
X1.775Y-0.6
X1.775Y-0.755
X1.775Y-0.8037
X1.775Y-0.845
X1.775Y-2.602
X1.775Y-2.757
X1.775Y-2.8057
X1.775Y-2.847
X1.785Y-0.32
X1.785Y-2.322
X1.79Y-1.3044
X1.79Y-3.3063
X1.795Y-0.375
X1.795Y-2.377
X1.805Y-0.7756
X1.805Y-0.8244
X1.805Y-2.7776
X1.805Y-2.8263
X1.815Y-0.725
X1.815Y-2.727
X1.8194Y-0.6094
X1.8194Y-2.6113
X1.83Y-1.32
X1.83Y-3.322
X1.84Y-0.22
X1.84Y-2.222
X1.865Y-0.03
X1.865Y-0.61
X1.865Y-2.032
X1.865Y-2.612
X1.875Y-0.58
X1.875Y-2.582
X1.885Y-0.865
X1.885Y-2.867
X1.905Y-0.725
X1.905Y-2.727
X1.9149Y-1.0299
X1.9149Y-3.0319
X1.925Y-1.23
X1.925Y-3.232
X1.93Y-0.62
X1.93Y-2.622
X1.935Y-0.03
X1.935Y-2.032
X1.94Y-0.925
X1.94Y-2.927
X1.952Y-1.2246
X1.952Y-3.2266
X1.96Y-0.44
X1.96Y-2.442
X1.965Y-1.83
X1.965Y-3.832
X1.975Y-0.94
X1.975Y-1.11
X1.975Y-2.942
X1.975Y-3.112
X1.9753Y-0.755
X1.9753Y-2.757
X1.9762Y-0.91
X1.9762Y-2.912
X1.985Y-0.55
X1.985Y-1.32
X1.985Y-2.552
X1.985Y-3.322
X2.005Y-0.6733
X2.005Y-2.6752
X2.01Y-1.12
X2.01Y-1.5906
X2.01Y-3.122
X2.01Y-3.5926
X2.03Y-0.6526
X2.03Y-2.6546
X2.035Y-1.14
X2.035Y-3.142
X2.05Y-1.005
X2.05Y-3.007
X2.055Y-1.5906
X2.055Y-3.5926
X2.0612Y-0.8314
X2.0612Y-2.8334
X2.0757Y-1.6319
X2.0757Y-3.6339
X2.105Y-1.655
X2.105Y-3.657
X2.12Y-1.055
X2.12Y-3.057
X2.13Y-0.605
X2.13Y-1.6113
X2.13Y-1.67
X2.13Y-2.607
X2.13Y-3.6133
X2.13Y-3.672
X2.14Y-1.32
X2.14Y-3.322
X2.145Y-1.71
X2.145Y-1.81
X2.145Y-3.712
X2.145Y-3.812
X2.15Y-0.845
X2.15Y-2.847
X2.155Y-0.74
X2.155Y-2.742
X2.165Y-1.12
X2.165Y-3.122
X2.175Y-0.325
X2.175Y-0.635
X2.175Y-2.327
X2.175Y-2.637
X2.19Y-0.85
X2.19Y-2.852
X2.1928Y-0.7408
X2.1928Y-2.7428
X2.1979Y-0.7679
X2.1979Y-2.7699
X2.1984Y-0.6834
X2.1984Y-2.6854
X2.205Y-0.985
X2.205Y-2.987
X2.2338Y-0.7988
X2.2338Y-2.8008
X2.235Y-1.645
X2.235Y-3.647
X2.239Y-0.6645
X2.239Y-2.6665
X2.2419Y-0.3385
X2.2419Y-2.3405
X2.2451Y-0.8966
X2.2451Y-2.8985
X2.25Y-0.63
X2.25Y-2.632
X2.255Y-0.825
X2.255Y-2.827
X2.2614Y-1.105
X2.2614Y-3.107
X2.265Y-1.265
X2.265Y-3.267
X2.27Y-0.285
X2.27Y-2.287
X2.285Y-1.24
X2.285Y-3.242
X2.32Y-1.04
X2.32Y-3.042
X2.33Y-1.64
X2.33Y-1.81
X2.33Y-3.642
X2.33Y-3.812
X2.335Y-0.35
X2.335Y-0.41
X2.335Y-0.47
X2.335Y-2.352
X2.335Y-2.412
X2.335Y-2.472
X2.35Y-0.03
X2.35Y-0.07
X2.35Y-2.032
X2.35Y-2.072
X2.375Y-0.31
X2.375Y-2.312
X2.38Y-1.005
X2.38Y-3.007
X2.3803Y-1.1403
X2.3803Y-3.1422
X2.385Y-1.3
X2.385Y-3.302
X2.395Y-0.975
X2.395Y-2.977
X2.4236Y-0.7467
X2.4236Y-2.7487
X2.43Y-0.31
X2.43Y-2.312
X2.435Y-0.9412
X2.435Y-2.9432
X2.445Y-0.235
X2.445Y-1.175
X2.445Y-2.237
X2.445Y-3.177
X2.4542Y-0.7535
X2.4542Y-2.7555
X2.455Y-0.185
X2.455Y-2.187
X2.465Y-0.665
X2.465Y-2.667
X2.5121Y-0.885
X2.5121Y-2.887
X2.5134Y-0.94
X2.5134Y-2.942
X2.515Y-0.58
X2.515Y-2.582
X2.52Y-0.3924
X2.52Y-2.3944
X2.53Y-0.335
X2.53Y-2.337
X2.545Y-0.025
X2.545Y-0.415
X2.545Y-0.465
X2.545Y-0.515
X2.545Y-2.027
X2.545Y-2.417
X2.545Y-2.467
X2.545Y-2.517
X2.55Y-0.55
X2.55Y-0.61
X2.55Y-2.552
X2.55Y-2.612
X2.59Y-1.175
X2.59Y-3.177
X2.615Y-0.605
X2.615Y-2.607
X2.685Y-1.4
X2.685Y-3.402
X2.695Y-0.375
X2.695Y-2.377
X2.8Y-0.375
X2.8Y-0.605
X2.8Y-0.93
X2.8Y-1.145
X2.8Y-1.4
X2.8Y-2.377
X2.8Y-2.607
X2.8Y-2.932
X2.8Y-3.147
X2.8Y-3.402
T2
X0.475Y-1.485
X0.475Y-3.487
X0.5475Y-1.2875
X0.5475Y-3.2894
T4
X0.5093Y-0.36
X0.5093Y-2.362
X0.5495Y-0.26
X0.5495Y-2.262
X0.5896Y-0.36
X0.5896Y-2.362
X0.6298Y-0.26
X0.6298Y-2.262
X0.67Y-0.36
X0.67Y-2.362
X0.7101Y-0.26
X0.7101Y-2.262
X0.7503Y-0.36
X0.7503Y-2.362
X0.7904Y-0.26
X0.7904Y-2.262
X1.2593Y-0.36
X1.2593Y-2.362
X1.2995Y-0.26
X1.2995Y-2.262
X1.3396Y-0.36
X1.3396Y-2.362
X1.3798Y-0.26
X1.3798Y-2.262
X1.42Y-0.36
X1.42Y-2.362
X1.4601Y-0.26
X1.4601Y-2.262
X1.5003Y-0.36
X1.5003Y-2.362
X1.5404Y-0.26
X1.5404Y-2.262
T5
X0.26Y-0.4438
X0.26Y-0.5462
X0.26Y-2.4458
X0.26Y-2.5481
T6
X0.145Y-1.3966
X0.145Y-1.495
X0.145Y-3.3985
X0.145Y-3.497
X0.3913Y-1.4
X0.3913Y-3.402
X0.455Y-0.665
X0.455Y-2.667
X0.4897Y-1.4
X0.4897Y-3.402
X0.5534Y-0.665
X0.5534Y-2.667
X0.5881Y-1.4
X0.5881Y-3.402
X0.6866Y-1.4
X0.6866Y-3.402
X0.785Y-1.4
X0.785Y-3.402
X0.9881Y-1.4
X0.9881Y-3.402
X1.0866Y-1.4
X1.0866Y-3.402
X1.185Y-1.4
X1.185Y-3.402
X1.3881Y-1.4
X1.3881Y-3.402
X1.4866Y-1.4
X1.4866Y-3.402
X1.585Y-1.4
X1.585Y-3.402
X1.7881Y-1.4
X1.7881Y-3.402
X1.8866Y-1.4
X1.8866Y-3.402
X1.985Y-1.4
X1.985Y-3.402
X2.1866Y-1.4
X2.1866Y-3.402
X2.285Y-1.4
X2.285Y-3.402
X2.4858Y-1.4
X2.4858Y-3.402
X2.5842Y-1.4
X2.5842Y-3.402
T7
X2.735Y-0.775
X2.735Y-0.875
X2.735Y-0.975
X2.735Y-1.075
X2.735Y-2.777
X2.735Y-2.877
X2.735Y-2.977
X2.735Y-3.077
T8
X0.33Y-0.36
X0.33Y-2.362
X0.9698Y-0.36
X0.9698Y-2.362
X1.08Y-0.36
X1.08Y-2.362
X1.7198Y-0.36
X1.7198Y-2.362
T9
X0.125Y-0.125
X0.125Y-1.7392
X0.125Y-2.127
X0.125Y-3.7411
X2.725Y-0.125
X2.725Y-1.7392
X2.725Y-2.127
X2.725Y-3.7411
T3
G00X0.1202Y-0.3552
M15
G01X0.1006Y-0.3552
M16
G05
G00X0.1202Y-0.6348
M15
G01X0.1006Y-0.6348
M16
G05
G00X0.1202Y-2.3572
M15
G01X0.1006Y-2.3572
M16
G05
G00X0.1202Y-2.6367
M15
G01X0.1006Y-2.6367
M16
G05
T0
M30
